HIERARCHY
ROOT Hips
{
  OFFSET 54.366 98.2075 -3.47856
  CHANNELS 6 Xposition Yposition Zposition Zrotation Xrotation Yrotation
  JOINT Spine
  {
    OFFSET -0.000355721 21.3001 -0.016921
    CHANNELS 3 Zrotation Xrotation Yrotation
    JOINT LeftArm
    {
      OFFSET 13.5181 21.3012 0
      CHANNELS 3 Zrotation Xrotation Yrotation
      JOINT LeftForeArm
      {
        OFFSET 24.5783 0 0
        CHANNELS 3 Zrotation Xrotation Yrotation
        JOINT LeftHand
        {
          OFFSET 24.5783 0 0
          CHANNELS 3 Zrotation Xrotation Yrotation
          End Site
          {
            OFFSET 7.32568 1.52588e-05 0.0169305
          }
        }
      }
    }
    JOINT Head
    {
      OFFSET 0 27.4458 -0.00489235
      CHANNELS 3 Zrotation Xrotation Yrotation
      End Site
      {
        OFFSET 0 0 0
      }
    }
    JOINT RightArm
    {
      OFFSET -13.5174 21.3012 0
      CHANNELS 3 Zrotation Xrotation Yrotation
      JOINT RightForeArm
      {
        OFFSET -24.5783 0 0
        CHANNELS 3 Zrotation Xrotation Yrotation
        JOINT RightHand
        {
          OFFSET -24.5783 0 0
          CHANNELS 3 Zrotation Xrotation Yrotation
          End Site
          {
            OFFSET -7.32568 1.52588e-05 0.0169305
          }
        }
      }
    }
  }
  JOINT RightUpLeg
  {
    OFFSET -8.44614 -9.41038 0.835684
    CHANNELS 3 Zrotation Xrotation Yrotation
    JOINT RightLeg
    {
      OFFSET 0 -40.9639 0
      CHANNELS 3 Zrotation Xrotation Yrotation
      JOINT RightFoot
      {
        OFFSET 0 -40.9639 0
        CHANNELS 3 Zrotation Xrotation Yrotation
        End Site
        {
          OFFSET 0.50614 -9.67405 14.6709
        }
      }
    }
  }
  JOINT LeftUpLeg
  {
    OFFSET 8.44614 -9.41038 0.835684
    CHANNELS 3 Zrotation Xrotation Yrotation
    JOINT LeftLeg
    {
      OFFSET 0 -40.9639 0
      CHANNELS 3 Zrotation Xrotation Yrotation
      JOINT LeftFoot
      {
        OFFSET 0 -40.9639 0
        CHANNELS 3 Zrotation Xrotation Yrotation
        End Site
        {
          OFFSET -0.50614 -9.67405 14.6709
        }
      }
    }
  }
}
MOTION
Frames:	19
Frame Time:	0.0333333
54.366 98.2075 -3.47856 1.8653 -2.3802 -23.3579 2.3574 3.97498 2.91828 -92.2516 14.4398 1.68644 16.4401 -4.6311 -31.0039 0.45519 -26.6845 1.35977 -4.62222 -6.17451 20.5566 75.624 40.0614 3.7905 -15.7468 -4.05412 30.0169 -0.289713 -15.8309 -0.558956 -0.911025 3.13628 -6.36799 0.815511 15.5487 0.457057 3.59846 -10.0423 -17.4326 2.40985 -13.4961 3.94152 -2.13875 22.162 0.243592 -11.0706 3.63936 18.0988 
54.3923 98.293 -3.6519 1.81062 -2.57907 -24.3416 2.15798 4.21988 3.45879 -90.7024 16.411 0.363733 17.7362 -5.26805 -33.1675 0.378251 -27.4653 1.32494 -5.35842 -5.8239 19.8207 72.8571 40.9493 6.13214 -17.3825 -4.84692 32.7465 -0.287066 -16.5931 -0.591466 -1.04101 2.59899 -5.715 0.815415 16.3913 0.390221 3.63842 -10.0671 -17.1434 2.54901 -12.8143 4.28956 -2.1547 21.2768 0.177021 -10.8131 2.32536 18.8116 
54.5797 98.2178 -3.74415 2.28219 -2.95085 -24.483 1.63626 4.21006 3.10456 -89.2399 18.7862 -0.770572 19.7198 -6.38362 -36.6186 0.366322 -29.4753 1.30457 -5.58747 -5.68584 19.5299 69.5213 42.3361 8.41847 -19.3594 -5.9196 36.0962 -0.277618 -18.23 -0.631537 -1.8204 2.41263 -5.67281 0.806894 16.9416 0.337561 3.58722 -10.3413 -16.8985 1.79344 -12.5706 4.10392 -2.14096 21.0536 0.123669 -11.1666 3.16765 19.0338 
54.6635 98.2087 -3.83147 2.59834 -3.42211 -25.2473 1.05065 4.35606 3.29873 -87.5247 20.9998 -1.5366 21.6707 -7.62653 -40.1156 0.32227 -30.3625 1.25711 -5.65902 -5.26585 19.4653 66.133 43.4228 10.7884 -21.4574 -7.22488 39.7876 -0.27975 -19.8779 -0.663701 -2.50377 2.06627 -5.25154 0.798314 17.8364 0.262472 3.57258 -10.5919 -16.3933 1.28607 -11.9081 4.64924 -2.13105 20.4817 0.049187 -11.2407 3.10505 19.436 
54.7487 98.2141 -3.8824 2.91465 -3.63994 -25.7387 0.814626 4.01028 3.50507 -85.6206 23.6183 -2.40331 23.6056 -8.99806 -43.6586 0.2822 -31.8819 1.19275 -3.76185 -5.34974 20.9617 63.1992 43.8309 12.3772 -23.6814 -8.81077 43.8652 -0.2734 -20.4072 -0.686193 -3.0861 1.90036 -5.30586 0.79047 18.1798 0.232773 3.6839 -10.5024 -15.6756 0.883717 -11.6807 5.08972 -2.11811 20.2203 0.00592647 -11.4444 3.5565 19.5891 
54.7643 98.1819 -3.9469 2.69529 -3.80782 -26.4622 0.942459 3.94552 3.32214 -84.1288 25.0853 -2.6348 25.7689 -10.7994 -47.8869 0.276578 -32.6685 1.14895 -3.9443 -4.6542 21.6517 59.9373 44.4518 14.4937 -25.7388 -10.4806 47.8028 -0.280274 -21.7319 -0.700651 -2.98834 2.01988 -4.78864 0.796295 18.1826 0.237848 3.64819 -10.5967 -15.7218 1.10335 -11.4682 5.22411 -2.1191 20.4377 0.0513367 -11.0376 2.16313 20.0789 
54.7186 98.1909 -4.03769 2.33227 -3.90597 -27.3567 1.31121 3.84996 3.00409 -82.9155 25.8287 -2.55785 27.7123 -12.9752 -52.4112 0.395992 -33.5127 1.23125 -4.87485 -4.30902 21.0703 56.5444 45.4999 16.1697 -27.9248 -12.4949 52.1897 -0.265944 -22.649 -0.721655 -2.61178 2.16769 -3.89603 0.812653 17.9824 0.262417 3.70331 -10.3796 -15.8883 1.57103 -11.3387 5.58089 -2.10382 20.8564 0.106953 -10.9313 1.67646 20.3548 
54.7269 98.1493 -4.11325 1.81714 -3.94215 -28.2943 2.00263 3.9277 3.17762 -81.3453 27.633 -2.75656 29.8032 -14.9176 -56.2731 0.242477 -34.4396 1.0385 -3.94341 -4.62359 22.0993 54.0647 45.3833 17.6229 -29.8923 -14.5937 56.3286 -0.258704 -24.1788 -0.751998 -2.23048 2.26294 -3.70639 0.802677 18.031 0.278355 3.7855 -10.2542 -15.2652 2.184 -11.1893 5.91453 -2.07412 21.3658 0.160187 -11.0728 1.83243 20.536 
54.6963 98.1451 -4.19397 1.60536 -4.16382 -29.3117 2.19017 4.06345 3.34114 -80.0473 28.584 -2.81544 31.5764 -17.1416 -60.2063 0.224532 -34.985 0.995387 -4.05817 -4.35731 22.5266 51.7337 45.253 18.8217 -31.6513 -16.6633 60.0842 -0.270359 -23.3256 -0.758833 -2.17872 2.15194 -2.99862 0.79824 18.5197 0.251372 3.8176 -10.2691 -14.8564 2.38032 -10.8134 6.34654 -2.07219 21.4138 0.186677 -10.6521 0.426353 21.2215 
54.6304 98.1204 -4.2478 2.42717 -4.68299 -30.0029 1.01797 3.61407 3.31077 -79.2112 29.489 -2.43374 32.9867 -19.2021 -63.4823 0.212168 -35.0146 0.97268 -3.95409 -3.19867 23.2267 50.2317 45.2154 19.4645 -33.24 -18.7213 63.4294 -0.315799 -23.0191 -0.761104 -3.37026 1.42673 -2.85824 0.795287 19.7485 0.131473 3.81557 -10.5695 -14.1486 1.3123 -10.0764 6.42989 -2.0743 20.2963 0.0521116 -10.8176 0.472315 22.0286 
54.488 98.101 -4.23487 2.57581 -4.992 -31.1474 0.860788 3.20042 3.52525 -78.3058 30.457 -1.76929 34.2809 -21.5858 -66.8196 0.305861 -35.2827 0.980483 -3.7189 -2.95906 23.921 48.5598 46.4023 19.3533 -34.9402 -21.4429 67.2439 -0.333623 -24.3531 -0.797539 -3.71389 1.11152 -2.35296 0.793818 20.4553 0.0854002 4.0364 -10.0041 -13.975 1.09253 -9.43404 6.59052 -2.07339 19.7753 0.00455698 -10.7268 -0.167568 22.9735 
54.3478 98.1308 -4.25652 2.82769 -5.07036 -32.6947 0.72813 2.54362 3.88908 -78.021 31.7389 -0.628823 35.4059 -24.3882 -70.4215 0.369351 -35.6157 0.965572 -4.63402 -2.54962 23.284 48.4415 47.0601 18.9498 -36.2007 -24.1736 70.5567 -0.31735 -23.8534 -0.795266 -4.06341 0.369543 -1.38229 0.816159 21.2099 0.00568319 4.03946 -10.1849 -13.2219 0.965597 -9.02194 7.18745 -2.0631 19.3027 -0.0414073 -10.8465 -0.233753 23.6816 
54.1877 98.0856 -4.22779 2.26642 -5.29484 -34.0087 1.39703 2.67115 3.99828 -79.1253 31.7872 0.990761 36.0673 -27.4202 -74.2944 0.381704 -35.1484 0.875917 -3.92083 -1.72571 24.8454 49.4648 47.9064 16.8934 -37.0079 -27.4673 74.4701 -0.288436 -23.7398 -0.765015 -3.69809 1.06426 -0.748814 0.811558 20.645 0.0733126 4.0179 -10.3167 -12.7177 1.52525 -8.79091 7.5714 -2.02538 20.3703 0.0780757 -10.4704 -1.16443 24.0429 
53.9795 98.1254 -4.2495 2.11788 -5.74808 -35.8248 1.48574 2.85002 4.67985 -81.4228 31.5691 3.27777 36.1978 -30.5529 -78.7561 0.406627 -33.2728 0.78621 -4.69709 -1.48937 25.5211 50.569 48.8024 15.1989 -37.1232 -30.4007 78.3368 -0.219658 -22.7833 -0.713481 -3.9581 1.11192 0.07311 0.811241 20.9658 0.0648822 4.20302 -9.90193 -11.8692 1.53631 -7.90414 7.98899 -2.02288 20.2357 0.0820819 -9.58216 -3.1268 24.7975 
53.9002 98.0137 -4.15567 2.92341 -6.10983 -36.2984 1.044 2.20303 4.3998 -84.088 31.3768 5.5622 36.0187 -33.2038 -83.0501 0.399081 -32.4999 0.699645 -4.57587 -1.40555 25.7153 54.4241 48.8314 11.2933 -36.8502 -33.2579 82.734 -0.144778 -22.6915 -0.65507 -5.06181 0.376494 -0.149794 0.806928 22.0935 -0.0540962 4.1059 -10.5135 -10.959 0.668815 -7.70863 8.96439 -2.00271 19.8498 0.0159876 -9.71137 -2.72325 24.6293 
53.7424 98.0089 -4.13424 2.99502 -6.41979 -37.0896 1.12875 2.18622 4.28508 -86.0864 31.3944 7.18032 35.7431 -35.2509 -86.6322 0.418434 -31.3751 0.641086 -5.88989 -1.50855 26.0948 59.4445 49.0853 5.70335 -36.2561 -36.2836 88.017 -0.0839413 -22.6471 -0.606659 -5.30649 0.560179 0.426702 0.807611 22.1208 -0.0581939 4.05209 -10.7861 -10.7511 0.806148 -8.0102 10.2599 -1.91596 21.0355 0.0966247 -10.3534 -1.23453 24.0425 
53.6688 97.8936 -4.23428 3.16388 -6.84813 -37.811 0.954132 2.85173 4.2736 -87.8664 31.2493 8.46196 35.426 -37.0248 -89.883 0.411636 -30.4025 0.59426 -6.22329 -2.64273 26.7264 65.0734 48.533 0.394496 -35.6038 -38.8005 92.7581 -0.0418648 -22.026 -0.585339 -5.72046 0.337108 0.65749 0.798756 22.7003 -0.102764 4.06026 -10.8362 -10.6323 0.967662 -8.44915 11.591 -1.85048 22.8552 0.232637 -10.7432 0.432111 22.2605 
53.6256 97.8323 -4.30845 2.94306 -6.60896 -38.8331 1.78014 3.30391 4.19333 -89.2744 30.8766 8.82674 35.1948 -38.0509 -91.8143 0.417332 -29.5182 0.566273 -7.15769 -3.60206 27.8544 70.448 48.0703 -5.05901 -34.9529 -40.6733 96.4573 -0.00154163 -20.5936 -0.586967 -5.47426 -0.325989 0.547913 0.78067 23.3517 -0.137762 4.11875 -10.7336 -9.99897 2.17802 -9.61758 14.1662 -1.88068 25.0879 0.509121 -9.50427 -1.49031 20.4731 
53.79 97.6015 -4.25265 3.18918 -7.48795 -37.753 1.62069 4.43281 2.89091 -90.4564 31.5207 9.21481 35.0764 -38.6014 -92.8433 0.413715 -28.0066 0.546591 -8.06435 -4.7544 27.7905 75.7818 46.4371 -10.9226 -34.301 -42.3326 99.909 0.00712282 -19.9774 -0.587926 -6.38595 -0.427152 -0.556805 0.728617 25.1608 -0.275115 3.90626 -11.707 -9.91997 1.83328 -9.94153 15.212 -1.88103 26.6679 0.627787 -9.20426 -1.12397 18.5586 
